<?xml version="1.0" encoding="utf-8"?>
<svg width="1920px" height="1160px" viewBox="0 0 1920 1160" version="1.1" xmlns:xlink="http://www.w3.org/1999/xlink" xmlns="http://www.w3.org/2000/svg">
  <g id="Fond-2" transform="translate(-257.96722 -389.74915)">
    <path d="M0 1608.83C0 1513.78 113.951 1414.46 447.5 1256.67C781.049 1098.88 1054.56 1086.14 1213.5 1062.32C1372.44 1038.5 1637.46 989.373 1781.5 824.321C1925.54 659.269 1940.01 522.217 1957 419.321C1991.33 211.45 1975.04 87.789 2042 2.813C2108.96 -82.163 2376.38 1786.32 1812.5 1786.32C1248.62 1786.32 0 1758.22 0 1608.83Z" transform="translate(260.43933 320.2494)" id="Ellipse" fill="#CF0000" fill-rule="evenodd" stroke="none" />
    <path d="M0 957.022C0 900.481 83.8911 841.4 329.451 747.539C575.01 653.676 776.374 646.099 893.382 631.928C1010.39 617.757 1205.5 588.535 1311.55 490.353C1417.59 392.17 1428.24 310.644 1440.75 249.436C1466.02 125.782 1454.03 52.2218 1503.33 1.67333C1552.63 -48.8752 1749.5 1062.6 1334.37 1062.6C919.236 1062.6 0 1045.89 0 957.022Z" transform="matrix(-0.9998477 0.017452458 -0.017452458 -0.9998477 1611.4661 1062.4426)" id="Ellipse" fill="#CF0000" fill-rule="evenodd" stroke="none" />
  </g>
</svg>