<?xml version="1.0" encoding="utf-8"?>
<svg width="113px" height="113px" viewBox="0 0 113 113" version="1.1" xmlns:xlink="http://www.w3.org/1999/xlink" xmlns="http://www.w3.org/2000/svg">
  <defs>
    <path d="M0 0L113 0L113 112.484L0 112.484L0 0Z" id="path_1" />
    <clipPath id="mask_1">
      <use xlink:href="#path_1" />
    </clipPath>
  </defs>
  <g id="icons8_contacts">
    <path d="M0 0L113 0L113 112.484L0 112.484L0 0Z" id="Background" fill="none" fill-rule="evenodd" stroke="none" />
    <g clip-path="url(#mask_1)">
      <path d="M35.3125 0C21.6979 0 10.5938 11.0534 10.5938 24.6059C10.5938 33.023 14.8975 40.4926 21.4082 44.9277C8.77295 50.2828 0 62.778 0 77.3328L7.0625 77.3328C7.0625 61.6383 19.546 49.2118 35.3125 49.2118C51.079 49.2118 63.5625 61.6383 63.5625 77.3328L70.625 77.3328C70.625 62.778 61.8521 50.2828 49.2168 44.9277C55.7275 40.4926 60.0313 33.023 60.0313 24.6059C60.0313 11.0534 48.9271 0 35.3125 0L35.3125 0ZM35.3125 7.03024C45.1062 7.03024 52.9688 14.8569 52.9688 24.6059C52.9688 34.3549 45.1062 42.1815 35.3125 42.1815C25.5188 42.1815 17.6563 34.3549 17.6563 24.6059C17.6563 14.8569 25.5188 7.03024 35.3125 7.03024L35.3125 7.03024Z" transform="translate(21.1875 14.060516)" id="Shape" fill="#FFFFFF" fill-rule="evenodd" stroke="none" />
    </g>
  </g>
</svg>