<?xml version="1.0" encoding="utf-8"?>
<svg width="42px" height="42px" viewBox="0 0 42 42" version="1.1" xmlns:xlink="http://www.w3.org/1999/xlink" xmlns="http://www.w3.org/2000/svg">
  <defs>
    <filter id="filter_1">
      <feColorMatrix in="SourceGraphic" type="matrix" values="0 0 0 0 1 0 0 0 0 0.56078434 0 0 0 0 0 0 0 0 1 0" />
    </filter>
    <path d="M0 0L42 0L42 42L0 42L0 0Z" id="path_1" />
    <clipPath id="mask_1">
      <use xlink:href="#path_1" />
    </clipPath>
  </defs>
  <g id="Info-icon" transform="matrix(-1 -8.742278E-08 8.742278E-08 -1 42 42)" filter="url(#filter_1)">
    <path d="M0 0L42 0L42 42L0 42L0 0Z" id="Background" fill="none" fill-rule="evenodd" stroke="none" />
    <g clip-path="url(#mask_1)">
      <path d="M17.5 0C7.83475 0 0 7.83475 0 17.5C0 27.1652 7.83475 35 17.5 35C27.1652 35 35 27.1652 35 17.5C35 7.83475 27.1653 0 17.5 0L17.5 0ZM19.2505 26.25L15.7505 26.25L15.7505 15.75L19.2505 15.75L19.2505 26.25L19.2505 26.25ZM19.2502 12.25L15.7502 12.25L15.7502 8.74997L19.2502 8.74997L19.2502 12.25L19.2502 12.25Z" transform="translate(3.5 3.4996948)" id="Shape" fill="#FFFFFF" fill-rule="evenodd" stroke="none" />
    </g>
  </g>
</svg>